<?xml version="1.0" encoding="UTF-8" standalone="no"?><!DOCTYPE svg PUBLIC "-//W3C//DTD SVG 1.1//EN" "http://www.w3.org/Graphics/SVG/1.1/DTD/svg11.dtd"><svg width="100%" height="100%" viewBox="0 0 5000 2084" version="1.1" xmlns="http://www.w3.org/2000/svg" xmlns:xlink="http://www.w3.org/1999/xlink" xml:space="preserve" xmlns:serif="http://www.serif.com/" style="fill-rule:evenodd;clip-rule:evenodd;stroke-linecap:round;stroke-miterlimit:30;"><rect x="-43.725" y="-178.841" width="5066.38" height="2517.38" style="fill:url(#_Linear1);"/><path d="M3342.24,692.177l562.61,8.021" style="fill:none;stroke:#fff;stroke-width:3.33px;"/><path d="M3301.44,1580.38l-112.649,664.006" style="fill:none;stroke:#fff;stroke-width:3.33px;"/><path d="M705.664,521.078l614.424,-339.613" style="fill:none;stroke:#0e0e0e;stroke-width:3.33px;"/><path d="M1814.06,220.53l470.707,321.409" style="fill:none;stroke:#0e0e0e;stroke-width:3.33px;"/><path d="M3427.28,560.812l402.823,-230.717" style="fill:none;stroke:#0e0e0e;stroke-width:3.33px;"/><path d="M721.858,661.893l3293.07,1042.68" style="fill:none;stroke:#0e0e0e;stroke-width:3.33px;"/><path d="M657.131,732.469l399.431,953.923" style="fill:none;stroke:#0e0e0e;stroke-width:3.33px;"/><path d="M1508.92,347.34l-256.795,1313.34l157.336,115.751l875.776,-542.158" style="fill:none;stroke:#0e0e0e;stroke-width:3.33px;stroke-dasharray:3.33,33.33,0,0;"/><path d="M732.587,634.203l1452.15,180.736" style="fill:none;stroke:#0e0e0e;stroke-width:3.33px;"/><path d="M3796.16,189.663l-1952.7,-101.334l1952.7,101.334Z" style="fill:none;stroke:#0e0e0e;stroke-width:3.33px;"/><circle cx="2843.86" cy="887.646" r="660.868" style="fill:none;stroke:#0e0e0e;stroke-width:3.33px;stroke-linejoin:round;stroke-miterlimit:1.5;"/><g><path d="M2690.15,1300.46c0,0 -17.696,26.139 -8.105,32.608c9.592,6.469 42.075,19.266 65.08,19.343c23.005,0.077 44.082,-3.288 38.101,-15.203c-5.981,-11.915 -58.482,-32.547 -58.482,-32.547" style="fill:none;stroke:#0e0e0e;stroke-width:4.17px;stroke-linejoin:round;stroke-miterlimit:1.5;"/><path d="M2755.17,914.422c0,0 51.213,19.793 76.296,14.64c25.083,-5.153 78.051,-29.628 78.051,-29.628c0,0 57.894,215.138 62.252,246.097c4.357,30.958 27.695,171.094 27.695,171.094c-0,0 -15.89,12.297 -23.428,11.721c-7.539,-0.576 -121.316,-344.668 -121.316,-344.668c-0,0 -14.907,-24.949 -22.949,-23.839c-8.042,1.109 -113.786,347.377 -113.786,347.377l-29.523,-8.749l66.708,-384.045Z" style="fill:none;stroke:#0e0e0e;stroke-width:4.17px;stroke-linejoin:round;stroke-miterlimit:1.5;"/><path d="M2909.52,899.434l-0.584,-25.121l68.939,-107.659l-56.676,-172.938l-67.666,-21.804c0,0 -12.593,21.096 -33.715,19.286c-21.121,-1.809 -36.464,-20.926 -36.464,-20.926l-59.57,40.122l-60.52,148.968c-0,-0 -1.564,25.488 18.243,31.509c19.808,6.021 92.933,52.862 92.933,52.862l19.331,-41.741l-73.209,-50.771l13.584,-41.146l-13.584,41.146" style="fill:none;stroke:#0e0e0e;stroke-width:4.17px;stroke-linejoin:round;stroke-miterlimit:1.5;"/><path d="M2783.35,570.272c0,-0 48.277,111.693 52.134,157.231c3.857,45.538 14.92,150.151 14.92,150.151c-0,0 -40.539,8.59 -64.398,6.824c-23.858,-1.766 -40.633,-14.583 -40.633,-14.583l-4.757,-44.835" style="fill:none;stroke:#0e0e0e;stroke-width:4.17px;stroke-linejoin:round;stroke-miterlimit:1.5;"/><path d="M2919.52,862.993l-32.86,6.683c0,0 4.48,-83.072 -5.221,-135.13c-9.701,-52.058 -26.969,-166.739 -26.969,-166.739" style="fill:none;stroke:#0e0e0e;stroke-width:4.17px;stroke-linejoin:round;stroke-miterlimit:1.5;"/><path d="M2913.95,715.669l16.058,36.224l-13.138,26.279l-2.92,-62.503Z" style="fill:none;stroke:#0e0e0e;stroke-width:4.17px;stroke-linejoin:round;stroke-miterlimit:1.5;"/><path d="M2732.55,726.077l2.651,33.745" style="fill:none;stroke:#0e0e0e;stroke-width:4.17px;stroke-linejoin:round;stroke-miterlimit:1.5;"/><path d="M2756.02,875.297l3.809,37.083" style="fill:none;stroke:#0e0e0e;stroke-width:4.17px;stroke-linejoin:round;stroke-miterlimit:1.5;"/><path d="M2978.07,1329.62l-0.439,28.044c-0,0 21.68,5.981 49.67,5.89c27.989,-0.091 42.081,-16.41 42.081,-16.41c-0,0 -8.259,-18.467 -19.949,-19.72c-11.69,-1.253 -45.475,-11.822 -45.475,-11.822" style="fill:none;stroke:#0e0e0e;stroke-width:4.17px;stroke-linejoin:round;stroke-miterlimit:1.5;"/><path d="M2798.11,582.192l-1.789,-55.928c0,-0 -32.354,-62.91 -36.772,-68.263c-4.419,-5.353 -7.282,-35.523 12.282,-44.44c19.565,-8.916 27.861,-7.36 27.861,-7.36c0,0 0.831,-28.086 23.215,-22.797c22.384,5.29 67.383,28.804 67.383,28.804l-5.792,8.534l4.039,12.516l-7.668,7.496l0.457,74.907l-36.851,38.865l-10.063,-6.093c-0,0 1.463,11.286 7.821,16.074c6.357,4.788 17.559,5.36 17.559,5.36" style="fill:none;stroke:#0e0e0e;stroke-width:4.17px;stroke-linejoin:round;stroke-miterlimit:1.5;"/><path d="M2798.26,784.564c-0,-0 -3.702,25.911 -11.257,38.299c-7.555,12.387 -24.481,31.541 -24.481,31.541" style="fill:none;stroke:#0e0e0e;stroke-width:4.17px;stroke-linejoin:round;stroke-miterlimit:1.5;"/><path d="M2909.89,771.879c0,-0 1.748,24.668 3.456,37.299c1.708,12.63 8.195,45.762 8.195,45.762" style="fill:none;stroke:#0e0e0e;stroke-width:4.17px;stroke-linejoin:round;stroke-miterlimit:1.5;"/></g><circle cx="4066.62" cy="207.86" r="268.639" style="fill:none;stroke:#0e0e0e;stroke-width:3.33px;stroke-linejoin:round;stroke-miterlimit:1.5;"/><g><path d="M4147.6,366.556c-0,0 9.404,10.626 4.307,13.255c-5.097,2.63 -22.359,7.832 -34.584,7.863c-12.225,0.031 -23.426,-1.337 -20.248,-6.18c3.179,-4.843 31.078,-13.23 31.078,-13.23" style="fill:none;stroke:#0e0e0e;stroke-width:4.17px;stroke-linejoin:round;stroke-miterlimit:1.5;"/><path d="M4113.05,209.634c-0,-0 -27.215,8.045 -40.545,5.95c-13.329,-2.094 -41.477,-12.043 -41.477,-12.043c0,0 -30.765,87.452 -33.081,100.037c-2.316,12.584 -14.718,69.549 -14.718,69.549c0,-0 8.445,4.998 12.451,4.764c4.005,-0.234 64.468,-140.105 64.468,-140.105c0,-0 7.922,-10.142 12.195,-9.691c4.274,0.451 60.467,141.207 60.467,141.207l15.689,-3.556l-35.449,-156.112Z" style="fill:none;stroke:#0e0e0e;stroke-width:4.17px;stroke-linejoin:round;stroke-miterlimit:1.5;"/><path d="M4031.02,203.541l0.311,-10.212l-36.635,-43.762l30.118,-70.298l35.958,-8.863c0,-0 6.692,8.575 17.917,7.839c11.224,-0.735 19.377,-8.506 19.377,-8.506l31.657,16.309l32.16,60.555c0,-0 0.832,10.36 -9.694,12.808c-10.526,2.447 -49.386,21.488 -49.386,21.488l-10.273,-16.967l38.905,-20.639l-7.219,-16.725l7.219,16.725" style="fill:none;stroke:#0e0e0e;stroke-width:4.17px;stroke-linejoin:round;stroke-miterlimit:1.5;"/><path d="M4098.07,69.739c0,-0 -25.654,45.402 -27.704,63.913c-2.05,18.511 -7.929,61.036 -7.929,61.036c0,-0 21.543,3.491 34.222,2.774c12.678,-0.718 21.593,-5.928 21.593,-5.928l2.527,-18.225" style="fill:none;stroke:#0e0e0e;stroke-width:4.17px;stroke-linejoin:round;stroke-miterlimit:1.5;"/><path d="M4025.71,188.728l17.462,2.717c-0,-0 -2.381,-33.769 2.775,-54.93c5.155,-21.161 14.331,-67.778 14.331,-67.778" style="fill:none;stroke:#0e0e0e;stroke-width:4.17px;stroke-linejoin:round;stroke-miterlimit:1.5;"/><path d="M4028.67,128.842l-8.534,14.724l6.982,10.683l1.552,-25.407Z" style="fill:none;stroke:#0e0e0e;stroke-width:4.17px;stroke-linejoin:round;stroke-miterlimit:1.5;"/><path d="M4125.06,133.073l-1.409,13.717" style="fill:none;stroke:#0e0e0e;stroke-width:4.17px;stroke-linejoin:round;stroke-miterlimit:1.5;"/><path d="M4112.59,193.73l-2.024,15.073" style="fill:none;stroke:#0e0e0e;stroke-width:4.17px;stroke-linejoin:round;stroke-miterlimit:1.5;"/><path d="M3994.6,378.409l0.234,11.4c0,0 -11.521,2.431 -26.395,2.394c-14.874,-0.037 -22.363,-6.67 -22.363,-6.67c0,-0 4.389,-7.507 10.601,-8.016c6.213,-0.51 24.166,-4.806 24.166,-4.806" style="fill:none;stroke:#0e0e0e;stroke-width:4.17px;stroke-linejoin:round;stroke-miterlimit:1.5;"/><path d="M4090.23,74.584l0.951,-22.734c-0,-0 17.193,-25.573 19.541,-27.749c2.348,-2.176 3.87,-14.44 -6.527,-18.064c-10.397,-3.625 -14.806,-2.992 -14.806,-2.992c0,0 -0.441,-11.417 -12.336,-9.267c-11.895,2.15 -35.808,11.709 -35.808,11.709l3.077,3.469l-2.146,5.087l4.075,3.047l-0.243,30.45l19.583,15.798l5.348,-2.477c0,0 -0.778,4.588 -4.156,6.534c-3.379,1.947 -9.331,2.179 -9.331,2.179" style="fill:none;stroke:#0e0e0e;stroke-width:4.17px;stroke-linejoin:round;stroke-miterlimit:1.5;"/><path d="M4090.15,156.847c0,-0 1.967,10.533 5.982,15.568c4.015,5.036 13.009,12.822 13.009,12.822" style="fill:none;stroke:#0e0e0e;stroke-width:4.17px;stroke-linejoin:round;stroke-miterlimit:1.5;"/><path d="M4030.83,151.691c-0,-0 -0.929,10.027 -1.837,15.161c-0.907,5.135 -4.354,18.603 -4.354,18.603" style="fill:none;stroke:#0e0e0e;stroke-width:4.17px;stroke-linejoin:round;stroke-miterlimit:1.5;"/></g><circle cx="1572.62" cy="84.383" r="268.639" style="fill:none;stroke:#0e0e0e;stroke-width:3.33px;stroke-linejoin:round;stroke-miterlimit:1.5;"/><g><path d="M1510.13,252.19c-0,-0 -7.194,10.625 -3.295,13.255c3.899,2.629 17.103,7.831 26.454,7.862c9.352,0.032 17.92,-1.336 15.488,-6.179c-2.431,-4.844 -23.772,-13.23 -23.772,-13.23" style="fill:none;stroke:#0e0e0e;stroke-width:4.17px;stroke-linejoin:round;stroke-miterlimit:1.5;"/><path d="M1536.57,95.267c0,0 20.818,8.045 31.014,5.951c10.196,-2.095 31.727,-12.043 31.727,-12.043c0,-0 23.534,87.452 25.305,100.036c1.772,12.585 11.258,69.549 11.258,69.549c0,0 -6.459,4.999 -9.523,4.765c-3.065,-0.235 -49.314,-140.106 -49.314,-140.106c-0,0 -6.06,-10.142 -9.329,-9.691c-3.269,0.452 -46.253,141.207 -46.253,141.207l-12.001,-3.556l27.116,-156.112Z" style="fill:none;stroke:#0e0e0e;stroke-width:4.17px;stroke-linejoin:round;stroke-miterlimit:1.5;"/><path d="M1599.31,89.175l-0.237,-10.212l28.023,-43.763l-23.038,-70.298l-27.506,-8.863c-0,-0 -5.119,8.575 -13.705,7.839c-8.586,-0.735 -14.822,-8.506 -14.822,-8.506l-24.215,16.31l-24.601,60.554c-0,0 -0.636,10.361 7.416,12.808c8.051,2.448 37.776,21.488 37.776,21.488l7.858,-16.967l-29.759,-20.638l5.522,-16.726l-5.522,16.726" style="fill:none;stroke:#0e0e0e;stroke-width:4.17px;stroke-linejoin:round;stroke-miterlimit:1.5;"/><path d="M1548.02,-44.628c-0,0 19.624,45.403 21.192,63.914c1.568,18.511 6.064,61.035 6.064,61.035c0,0 -16.478,3.492 -26.177,2.774c-9.698,-0.718 -16.517,-5.928 -16.517,-5.928l-1.933,-18.225" style="fill:none;stroke:#0e0e0e;stroke-width:4.17px;stroke-linejoin:round;stroke-miterlimit:1.5;"/><path d="M1603.37,74.361l-13.358,2.717c0,0 1.821,-33.768 -2.122,-54.93c-3.944,-21.161 -10.963,-67.778 -10.963,-67.778" style="fill:none;stroke:#0e0e0e;stroke-width:4.17px;stroke-linejoin:round;stroke-miterlimit:1.5;"/><path d="M1601.11,14.475l6.528,14.725l-5.341,10.682l-1.187,-25.407Z" style="fill:none;stroke:#0e0e0e;stroke-width:4.17px;stroke-linejoin:round;stroke-miterlimit:1.5;"/><path d="M1527.37,18.706l1.078,13.717" style="fill:none;stroke:#0e0e0e;stroke-width:4.17px;stroke-linejoin:round;stroke-miterlimit:1.5;"/><path d="M1536.91,79.363l1.548,15.074" style="fill:none;stroke:#0e0e0e;stroke-width:4.17px;stroke-linejoin:round;stroke-miterlimit:1.5;"/><path d="M1627.17,264.043l-0.179,11.4c0,-0 8.813,2.431 20.191,2.394c11.377,-0.037 17.105,-6.671 17.105,-6.671c0,0 -3.357,-7.507 -8.109,-8.016c-4.752,-0.509 -18.485,-4.806 -18.485,-4.806" style="fill:none;stroke:#0e0e0e;stroke-width:4.17px;stroke-linejoin:round;stroke-miterlimit:1.5;"/><path d="M1554.08,42.48c-0,0 -1.505,10.533 -4.576,15.569c-3.071,5.035 -9.951,12.821 -9.951,12.821" style="fill:none;stroke:#0e0e0e;stroke-width:4.17px;stroke-linejoin:round;stroke-miterlimit:1.5;"/><path d="M1599.46,37.324c-0,0 0.71,10.028 1.404,15.162c0.695,5.134 3.332,18.602 3.332,18.602" style="fill:none;stroke:#0e0e0e;stroke-width:4.17px;stroke-linejoin:round;stroke-miterlimit:1.5;"/></g><circle cx="1177.34" cy="1927.81" r="268.639" style="fill:none;stroke:#0e0e0e;stroke-width:3.33px;stroke-linejoin:round;stroke-miterlimit:1.5;"/><g><path d="M1141.29,1938.69c-0,-0 20.817,8.045 31.013,5.951c10.196,-2.095 31.728,-12.044 31.728,-12.044c-0,0 23.533,87.452 25.304,100.037c1.772,12.585 11.258,69.549 11.258,69.549c0,-0 -6.459,4.998 -9.523,4.764c-3.064,-0.234 -49.314,-140.105 -49.314,-140.105c-0,-0 -6.06,-10.142 -9.329,-9.691c-3.269,0.451 -46.253,141.207 -46.253,141.207l-12.001,-3.556l27.117,-156.112Z" style="fill:none;stroke:#0e0e0e;stroke-width:4.17px;stroke-linejoin:round;stroke-miterlimit:1.5;"/><path d="M1204.03,1932.6l-0.238,-10.211l28.023,-43.763l-23.038,-70.298l-27.506,-8.863c0,-0 -5.119,8.575 -13.705,7.839c-8.585,-0.735 -14.822,-8.506 -14.822,-8.506l-24.215,16.309l-24.601,60.555c-0,-0 -0.636,10.36 7.416,12.808c8.051,2.447 37.776,21.488 37.776,21.488l7.858,-16.967l-29.759,-20.639l5.522,-16.725l-5.522,16.725" style="fill:none;stroke:#0e0e0e;stroke-width:4.17px;stroke-linejoin:round;stroke-miterlimit:1.5;"/><path d="M1152.75,1798.8c-0,-0 19.624,45.402 21.192,63.913c1.568,18.511 6.065,61.036 6.065,61.036c-0,-0 -16.479,3.491 -26.177,2.774c-9.699,-0.718 -16.518,-5.928 -16.518,-5.928l-1.933,-18.225" style="fill:none;stroke:#0e0e0e;stroke-width:4.17px;stroke-linejoin:round;stroke-miterlimit:1.5;"/><path d="M1208.1,1917.79l-13.357,2.717c-0,-0 1.821,-33.769 -2.123,-54.93c-3.943,-21.161 -10.963,-67.778 -10.963,-67.778" style="fill:none;stroke:#0e0e0e;stroke-width:4.17px;stroke-linejoin:round;stroke-miterlimit:1.5;"/><path d="M1205.84,1857.9l6.528,14.725l-5.341,10.682l-1.187,-25.407Z" style="fill:none;stroke:#0e0e0e;stroke-width:4.17px;stroke-linejoin:round;stroke-miterlimit:1.5;"/><path d="M1132.1,1862.13l1.077,13.717" style="fill:none;stroke:#0e0e0e;stroke-width:4.17px;stroke-linejoin:round;stroke-miterlimit:1.5;"/><path d="M1141.64,1922.79l1.548,15.074" style="fill:none;stroke:#0e0e0e;stroke-width:4.17px;stroke-linejoin:round;stroke-miterlimit:1.5;"/><path d="M1158.75,1803.64l-0.727,-22.734c-0,-0 -13.152,-25.573 -14.948,-27.748c-1.796,-2.176 -2.96,-14.44 4.993,-18.065c7.953,-3.625 11.325,-2.992 11.325,-2.992c0,0 0.338,-11.417 9.437,-9.267c9.099,2.15 27.391,11.709 27.391,11.709l-2.355,3.469l1.642,5.088l-3.117,3.047l0.186,30.449l-14.98,15.798l-4.091,-2.476c0,-0 0.595,4.587 3.18,6.534c2.584,1.946 7.137,2.178 7.137,2.178" style="fill:none;stroke:#0e0e0e;stroke-width:4.17px;stroke-linejoin:round;stroke-miterlimit:1.5;"/><path d="M1158.81,1885.9c0,0 -1.504,10.533 -4.576,15.568c-3.071,5.036 -9.951,12.822 -9.951,12.822" style="fill:none;stroke:#0e0e0e;stroke-width:4.17px;stroke-linejoin:round;stroke-miterlimit:1.5;"/><path d="M1204.18,1880.75c0,-0 0.71,10.027 1.405,15.162c0.694,5.134 3.331,18.602 3.331,18.602" style="fill:none;stroke:#0e0e0e;stroke-width:4.17px;stroke-linejoin:round;stroke-miterlimit:1.5;"/></g><circle cx="584.996" cy="605.934" r="144.162" style="fill:none;stroke:#0e0e0e;stroke-width:3.33px;stroke-linejoin:round;stroke-miterlimit:1.5;"/><g><path d="M551.466,695.986c0,-0 -3.86,5.702 -1.768,7.113c2.092,1.411 9.178,4.202 14.196,4.219c5.019,0.017 9.617,-0.717 8.312,-3.316c-1.305,-2.599 -12.758,-7.1 -12.758,-7.1" style="fill:none;stroke:#0e0e0e;stroke-width:4.17px;stroke-linejoin:round;stroke-miterlimit:1.5;"/><path d="M565.65,611.775c-0,-0 11.171,4.317 16.643,3.193c5.471,-1.124 17.026,-6.463 17.026,-6.463c-0,0 12.629,46.931 13.579,53.684c0.951,6.753 6.042,37.323 6.042,37.323c-0,-0 -3.466,2.682 -5.111,2.556c-1.644,-0.125 -26.464,-75.186 -26.464,-75.186c0,0 -3.251,-5.442 -5.006,-5.2c-1.754,0.242 -24.821,75.777 -24.821,75.777l-6.44,-1.908l14.552,-83.776Z" style="fill:none;stroke:#0e0e0e;stroke-width:4.17px;stroke-linejoin:round;stroke-miterlimit:1.5;"/><path d="M599.319,608.505l-0.128,-5.479l15.039,-23.485l-12.364,-37.725l-14.76,-4.756c-0,-0 -2.747,4.602 -7.355,4.207c-4.607,-0.395 -7.954,-4.565 -7.954,-4.565l-12.995,8.752l-13.201,32.496c-0,0 -0.342,5.56 3.979,6.873c4.321,1.314 20.272,11.532 20.272,11.532l4.217,-9.105l-15.969,-11.076l2.963,-8.975l-2.963,8.975" style="fill:none;stroke:#0e0e0e;stroke-width:4.17px;stroke-linejoin:round;stroke-miterlimit:1.5;"/><path d="M571.797,536.702c0,0 10.531,24.365 11.372,34.298c0.842,9.934 3.255,32.754 3.255,32.754c0,0 -8.843,1.874 -14.047,1.489c-5.205,-0.385 -8.864,-3.181 -8.864,-3.181l-1.038,-9.78" style="fill:none;stroke:#0e0e0e;stroke-width:4.17px;stroke-linejoin:round;stroke-miterlimit:1.5;"/><path d="M601.502,600.556l-7.168,1.458c-0,0 0.977,-18.121 -1.139,-29.477c-2.117,-11.356 -5.884,-36.373 -5.884,-36.373" style="fill:none;stroke:#0e0e0e;stroke-width:4.17px;stroke-linejoin:round;stroke-miterlimit:1.5;"/><path d="M600.287,568.419l3.503,7.902l-2.866,5.732l-0.637,-13.634Z" style="fill:none;stroke:#0e0e0e;stroke-width:4.17px;stroke-linejoin:round;stroke-miterlimit:1.5;"/><path d="M560.716,570.689l0.579,7.362" style="fill:none;stroke:#0e0e0e;stroke-width:4.17px;stroke-linejoin:round;stroke-miterlimit:1.5;"/><path d="M565.835,603.24l0.831,8.089" style="fill:none;stroke:#0e0e0e;stroke-width:4.17px;stroke-linejoin:round;stroke-miterlimit:1.5;"/><path d="M614.273,702.346l-0.096,6.118c-0,-0 4.729,1.305 10.835,1.285c6.105,-0.02 9.179,-3.58 9.179,-3.58c0,0 -1.801,-4.028 -4.351,-4.302c-2.55,-0.273 -9.92,-2.579 -9.92,-2.579" style="fill:none;stroke:#0e0e0e;stroke-width:4.17px;stroke-linejoin:round;stroke-miterlimit:1.5;"/><path d="M575.017,539.302l-0.39,-12.2c-0,0 -7.058,-13.723 -8.022,-14.891c-0.964,-1.167 -1.588,-7.749 2.68,-9.694c4.267,-1.945 6.077,-1.605 6.077,-1.605c0,-0 0.181,-6.127 5.064,-4.973c4.883,1.154 14.699,6.283 14.699,6.283l-1.263,1.862l0.881,2.73l-1.673,1.635l0.1,16.34l-8.039,8.478l-2.195,-1.329c-0,0 0.319,2.462 1.706,3.507c1.387,1.044 3.83,1.169 3.83,1.169" style="fill:none;stroke:#0e0e0e;stroke-width:4.17px;stroke-linejoin:round;stroke-miterlimit:1.5;"/><path d="M575.05,583.448c-0,-0 -0.808,5.652 -2.456,8.354c-1.648,2.702 -5.34,6.881 -5.34,6.881" style="fill:none;stroke:#0e0e0e;stroke-width:4.17px;stroke-linejoin:round;stroke-miterlimit:1.5;"/><path d="M599.401,580.681c-0,-0 0.381,5.381 0.754,8.136c0.372,2.755 1.787,9.983 1.787,9.983" style="fill:none;stroke:#0e0e0e;stroke-width:4.17px;stroke-linejoin:round;stroke-miterlimit:1.5;"/></g><circle cx="4299.1" cy="1787.59" r="301.584" style="fill:none;stroke:#0e0e0e;stroke-width:3.33px;stroke-linejoin:round;stroke-miterlimit:1.5;"/><g><path d="M4369.25,1975.98c-0,0 8.075,11.929 3.698,14.881c-4.377,2.952 -19.2,8.792 -29.698,8.827c-10.499,0.035 -20.117,-1.501 -17.388,-6.938c2.73,-5.437 26.688,-14.853 26.688,-14.853" style="fill:none;stroke:#0e0e0e;stroke-width:4.17px;stroke-linejoin:round;stroke-miterlimit:1.5;"/><path d="M4339.57,1799.81c-0,-0 -23.371,9.032 -34.817,6.68c-11.447,-2.351 -35.619,-13.52 -35.619,-13.52c0,0 -26.419,98.177 -28.408,112.305c-1.989,14.128 -12.639,78.078 -12.639,78.078c0,0 7.252,5.612 10.692,5.349c3.44,-0.263 55.362,-157.288 55.362,-157.288c-0,0 6.802,-11.385 10.472,-10.879c3.67,0.507 51.926,158.524 51.926,158.524l13.473,-3.992l-30.442,-175.257Z" style="fill:none;stroke:#0e0e0e;stroke-width:4.17px;stroke-linejoin:round;stroke-miterlimit:1.5;"/><path d="M4269.14,1792.97l0.267,-11.464l-31.46,-49.13l25.864,-78.919l30.879,-9.95c-0,0 5.746,9.627 15.385,8.801c9.639,-0.826 16.64,-9.549 16.64,-9.549l27.185,18.309l27.618,67.981c0,-0 0.714,11.631 -8.325,14.379c-9.039,2.747 -42.41,24.123 -42.41,24.123l-8.821,-19.048l33.408,-23.169l-6.198,-18.777l6.198,18.777" style="fill:none;stroke:#0e0e0e;stroke-width:4.17px;stroke-linejoin:round;stroke-miterlimit:1.5;"/><path d="M4326.71,1642.76c0,-0 -22.03,50.97 -23.791,71.751c-1.76,20.781 -6.808,68.521 -6.808,68.521c-0,-0 18.499,3.92 29.387,3.114c10.888,-0.806 18.543,-6.655 18.543,-6.655l2.171,-20.46" style="fill:none;stroke:#0e0e0e;stroke-width:4.17px;stroke-linejoin:round;stroke-miterlimit:1.5;"/><path d="M4264.57,1776.34l14.995,3.05c0,0 -2.044,-37.91 2.383,-61.666c4.427,-23.756 12.308,-76.09 12.308,-76.09" style="fill:none;stroke:#0e0e0e;stroke-width:4.17px;stroke-linejoin:round;stroke-miterlimit:1.5;"/><path d="M4267.11,1709.11l-7.328,16.53l5.996,11.993l1.332,-28.523Z" style="fill:none;stroke:#0e0e0e;stroke-width:4.17px;stroke-linejoin:round;stroke-miterlimit:1.5;"/><path d="M4349.9,1713.86l-1.21,15.399" style="fill:none;stroke:#0e0e0e;stroke-width:4.17px;stroke-linejoin:round;stroke-miterlimit:1.5;"/><path d="M4339.19,1781.95l-1.738,16.923" style="fill:none;stroke:#0e0e0e;stroke-width:4.17px;stroke-linejoin:round;stroke-miterlimit:1.5;"/><path d="M4237.86,1989.28l0.201,12.799c-0,-0 -9.894,2.729 -22.667,2.687c-12.773,-0.041 -19.203,-7.488 -19.203,-7.488c-0,-0 3.768,-8.428 9.103,-9c5.335,-0.571 20.752,-5.394 20.752,-5.394" style="fill:none;stroke:#0e0e0e;stroke-width:4.17px;stroke-linejoin:round;stroke-miterlimit:1.5;"/><path d="M4319.98,1648.2l0.817,-25.522c-0,-0 14.764,-28.709 16.781,-31.152c2.016,-2.442 3.323,-16.211 -5.606,-20.28c-8.928,-4.069 -12.714,-3.358 -12.714,-3.358c0,-0 -0.379,-12.817 -10.594,-10.404c-10.214,2.414 -30.749,13.145 -30.749,13.145l2.643,3.894l-1.843,5.712l3.499,3.421l-0.209,34.183l16.817,17.736l4.592,-2.78c0,-0 -0.667,5.15 -3.569,7.335c-2.901,2.185 -8.013,2.446 -8.013,2.446" style="fill:none;stroke:#0e0e0e;stroke-width:4.17px;stroke-linejoin:round;stroke-miterlimit:1.5;"/><path d="M4319.91,1740.55c-0,0 1.689,11.825 5.137,17.478c3.447,5.653 11.171,14.394 11.171,14.394" style="fill:none;stroke:#0e0e0e;stroke-width:4.17px;stroke-linejoin:round;stroke-miterlimit:1.5;"/><path d="M4268.97,1734.76c0,-0 -0.797,11.257 -1.577,17.021c-0.779,5.764 -3.74,20.884 -3.74,20.884" style="fill:none;stroke:#0e0e0e;stroke-width:4.17px;stroke-linejoin:round;stroke-miterlimit:1.5;"/></g><path d="M4008.86,1802.3l-2562.38,131.497" style="fill:none;stroke:#0e0e0e;stroke-width:3.33px;stroke-dasharray:3.33,33.33,0,0;"/><path d="M4252.18,1496.88l-155.016,-1025.02" style="fill:none;stroke:#0e0e0e;stroke-width:3.33px;"/><path d="M3409.72,1242.34l633.888,391.848" style="fill:none;stroke:#0e0e0e;stroke-width:3.33px;"/><path d="M1613.79,836.755l292.196,-161.507" style="fill:none;stroke:#fff;stroke-width:3.33px;"/><path d="M2140.9,693.826l223.85,152.849" style="fill:none;stroke:#fff;stroke-width:3.33px;"/><path d="M2908.08,855.651l191.566,-109.72" style="fill:none;stroke:#fff;stroke-width:3.33px;"/><path d="M1621.49,903.721l1563.32,495.093" style="fill:none;stroke:#fff;stroke-width:3.33px;"/><path d="M3218.24,562.211l-6.829,-696.946l-1080.79,676.678" style="fill:none;stroke:#fff;stroke-width:3.33px;"/><path d="M1887.25,1624.94l236.456,674.249" style="fill:none;stroke:#fff;stroke-width:3.33px;"/><path d="M1590.71,937.284l189.954,453.648" style="fill:none;stroke:#fff;stroke-width:3.33px;"/><path d="M1995.79,754.132l-122.122,624.574l74.823,55.047l416.485,-257.829" style="fill:none;stroke:#fff;stroke-width:3.33px;stroke-dasharray:3.33,33.33,0,0;"/><path d="M1626.6,890.553l690.585,85.951" style="fill:none;stroke:#fff;stroke-width:3.33px;"/><path d="M3083.51,679.147l-928.627,-48.191l928.627,48.191Z" style="fill:none;stroke:#fff;stroke-width:3.33px;"/><circle cx="2630.63" cy="1011.08" r="314.283" style="fill:#161616;stroke:#fff;stroke-width:3.33px;stroke-linejoin:round;stroke-miterlimit:1.5;"/><g><path d="M2557.53,1207.4c-0,0 -8.416,12.431 -3.855,15.507c4.562,3.077 20.009,9.162 30.95,9.199c10.94,0.036 20.964,-1.564 18.119,-7.23c-2.844,-5.666 -27.812,-15.478 -27.812,-15.478" style="fill:none;stroke:#fff;stroke-width:4.17px;stroke-linejoin:round;stroke-miterlimit:1.5;"/><path d="M2588.45,1023.81c0,-0 24.355,9.412 36.283,6.962c11.929,-2.451 37.119,-14.09 37.119,-14.09c-0,0 27.531,102.311 29.604,117.034c2.072,14.723 13.171,81.366 13.171,81.366c-0,-0 -7.557,5.848 -11.142,5.574c-3.585,-0.274 -57.693,-163.911 -57.693,-163.911c0,0 -7.089,-11.865 -10.913,-11.337c-3.825,0.528 -54.112,165.199 -54.112,165.199l-14.041,-4.161l31.724,-182.636Z" style="fill:none;stroke:#fff;stroke-width:4.17px;stroke-linejoin:round;stroke-miterlimit:1.5;"/><path d="M2661.86,1016.69l-0.278,-11.947l32.784,-51.198l-26.953,-82.242l-32.179,-10.369c0,-0 -5.989,10.032 -16.033,9.171c-10.045,-0.86 -17.341,-9.951 -17.341,-9.951l-28.329,19.08l-28.781,70.843c-0,0 -0.744,12.121 8.676,14.985c9.419,2.863 44.195,25.139 44.195,25.139l9.193,-19.85l-34.815,-24.145l6.459,-19.568l-6.459,19.568" style="fill:none;stroke:#fff;stroke-width:4.17px;stroke-linejoin:round;stroke-miterlimit:1.5;"/><path d="M2601.86,860.15c0,-0 22.958,53.116 24.793,74.772c1.834,21.657 7.095,71.406 7.095,71.406c-0,0 -19.279,4.085 -30.625,3.246c-11.346,-0.84 -19.323,-6.935 -19.323,-6.935l-2.263,-21.322" style="fill:none;stroke:#fff;stroke-width:4.17px;stroke-linejoin:round;stroke-miterlimit:1.5;"/><path d="M2666.62,999.356l-15.627,3.178c0,0 2.131,-39.506 -2.483,-64.262c-4.613,-24.757 -12.825,-79.295 -12.825,-79.295" style="fill:none;stroke:#fff;stroke-width:4.17px;stroke-linejoin:round;stroke-miterlimit:1.5;"/><path d="M2663.97,929.295l7.637,17.226l-6.249,12.498l-1.388,-29.724Z" style="fill:none;stroke:#fff;stroke-width:4.17px;stroke-linejoin:round;stroke-miterlimit:1.5;"/><path d="M2577.7,934.244l1.261,16.048" style="fill:none;stroke:#fff;stroke-width:4.17px;stroke-linejoin:round;stroke-miterlimit:1.5;"/><path d="M2588.86,1005.21l1.812,17.634" style="fill:none;stroke:#fff;stroke-width:4.17px;stroke-linejoin:round;stroke-miterlimit:1.5;"/><path d="M2694.46,1221.27l-0.209,13.337c-0,-0 10.31,2.844 23.621,2.8c13.311,-0.043 20.012,-7.803 20.012,-7.803c-0,-0 -3.928,-8.783 -9.487,-9.379c-5.559,-0.595 -21.626,-5.622 -21.626,-5.622" style="fill:none;stroke:#fff;stroke-width:4.17px;stroke-linejoin:round;stroke-miterlimit:1.5;"/><path d="M2608.88,865.818l-0.851,-26.597c-0,0 -15.386,-29.917 -17.488,-32.463c-2.101,-2.546 -3.462,-16.893 5.842,-21.134c9.304,-4.24 13.249,-3.5 13.249,-3.5c0,-0 0.395,-13.357 11.04,-10.841c10.645,2.515 32.045,13.697 32.045,13.697l-2.755,4.059l1.921,5.952l-3.646,3.565l0.217,35.623l-17.525,18.482l-4.786,-2.897c0,-0 0.696,5.367 3.72,7.644c3.023,2.277 8.35,2.549 8.35,2.549" style="fill:none;stroke:#fff;stroke-width:4.17px;stroke-linejoin:round;stroke-miterlimit:1.5;"/><path d="M2608.95,962.058c0,0 -1.76,12.323 -5.353,18.214c-3.593,5.891 -11.642,15 -11.642,15" style="fill:none;stroke:#fff;stroke-width:4.17px;stroke-linejoin:round;stroke-miterlimit:1.5;"/><path d="M2662.03,956.026c-0,-0 0.831,11.731 1.643,17.738c0.813,6.006 3.898,21.763 3.898,21.763" style="fill:none;stroke:#fff;stroke-width:4.17px;stroke-linejoin:round;stroke-miterlimit:1.5;"/></g><circle cx="3212.13" cy="687.801" r="127.754" style="fill:none;stroke:#fff;stroke-width:3.33px;stroke-linejoin:round;stroke-miterlimit:1.5;"/><g><path d="M3250.64,763.271c0,-0 4.473,5.053 2.049,6.303c-2.424,1.251 -10.633,3.724 -16.447,3.739c-5.814,0.015 -11.14,-0.635 -9.629,-2.939c1.512,-2.303 14.78,-6.291 14.78,-6.291" style="fill:none;stroke:#fff;stroke-width:4.17px;stroke-linejoin:round;stroke-miterlimit:1.5;"/><path d="M3234.21,688.644c-0,0 -12.943,3.826 -19.282,2.83c-6.339,-0.996 -19.725,-5.727 -19.725,-5.727c0,-0 -14.63,41.589 -15.732,47.573c-1.101,5.985 -6.999,33.075 -6.999,33.075c0,0 4.016,2.377 5.921,2.266c1.905,-0.111 30.659,-66.629 30.659,-66.629c-0,0 3.767,-4.823 5.799,-4.608c2.032,0.214 28.756,67.152 28.756,67.152l7.461,-1.691l-16.858,-74.241Z" style="fill:none;stroke:#fff;stroke-width:4.17px;stroke-linejoin:round;stroke-miterlimit:1.5;"/><path d="M3195.2,685.747l0.148,-4.856l-17.422,-20.812l14.323,-33.431l17.1,-4.215c0,-0 3.183,4.078 8.521,3.728c5.337,-0.35 9.215,-4.045 9.215,-4.045l15.054,7.756l15.295,28.797c-0,0 0.395,4.927 -4.611,6.091c-5.005,1.164 -23.485,10.219 -23.485,10.219l-4.886,-8.069l18.501,-9.815l-3.432,-7.954l3.432,7.954" style="fill:none;stroke:#fff;stroke-width:4.17px;stroke-linejoin:round;stroke-miterlimit:1.5;"/><path d="M3227.09,622.116c-0,-0 -12.201,21.591 -13.175,30.394c-0.975,8.804 -3.771,29.027 -3.771,29.027c0,-0 10.245,1.66 16.274,1.319c6.03,-0.342 10.269,-2.819 10.269,-2.819l1.202,-8.668" style="fill:none;stroke:#fff;stroke-width:4.17px;stroke-linejoin:round;stroke-miterlimit:1.5;"/><path d="M3192.67,678.702l8.304,1.292c-0,0 -1.132,-16.059 1.319,-26.122c2.452,-10.064 6.816,-32.233 6.816,-32.233" style="fill:none;stroke:#fff;stroke-width:4.17px;stroke-linejoin:round;stroke-miterlimit:1.5;"/><path d="M3194.08,650.223l-4.058,7.002l3.32,5.08l0.738,-12.082Z" style="fill:none;stroke:#fff;stroke-width:4.17px;stroke-linejoin:round;stroke-miterlimit:1.5;"/><path d="M3239.92,652.235l-0.67,6.523" style="fill:none;stroke:#fff;stroke-width:4.17px;stroke-linejoin:round;stroke-miterlimit:1.5;"/><path d="M3233.99,681.081l-0.963,7.168" style="fill:none;stroke:#fff;stroke-width:4.17px;stroke-linejoin:round;stroke-miterlimit:1.5;"/><path d="M3177.88,768.907l0.111,5.422c0,-0 -5.479,1.156 -12.552,1.138c-7.074,-0.018 -10.635,-3.172 -10.635,-3.172c0,-0 2.087,-3.57 5.042,-3.812c2.954,-0.243 11.492,-2.286 11.492,-2.286" style="fill:none;stroke:#fff;stroke-width:4.17px;stroke-linejoin:round;stroke-miterlimit:1.5;"/><path d="M3223.36,624.42l0.452,-10.812c0,0 8.177,-12.161 9.294,-13.196c1.116,-1.034 1.84,-6.867 -3.105,-8.59c-4.944,-1.724 -7.04,-1.423 -7.04,-1.423c-0,-0 -0.21,-5.43 -5.867,-4.407c-5.657,1.022 -17.029,5.568 -17.029,5.568l1.464,1.65l-1.021,2.419l1.938,1.449l-0.116,14.481l9.313,7.513l2.543,-1.178c0,0 -0.369,2.182 -1.976,3.107c-1.607,0.926 -4.438,1.036 -4.438,1.036" style="fill:none;stroke:#fff;stroke-width:4.17px;stroke-linejoin:round;stroke-miterlimit:1.5;"/><path d="M3223.32,663.541c0,-0 0.936,5.009 2.845,7.404c1.909,2.394 6.187,6.097 6.187,6.097" style="fill:none;stroke:#fff;stroke-width:4.17px;stroke-linejoin:round;stroke-miterlimit:1.5;"/><path d="M3195.11,661.089c-0,-0 -0.442,4.769 -0.874,7.21c-0.431,2.442 -2.071,8.847 -2.071,8.847" style="fill:none;stroke:#fff;stroke-width:4.17px;stroke-linejoin:round;stroke-miterlimit:1.5;"/></g><circle cx="2026.08" cy="629.08" r="127.754" style="fill:none;stroke:#fff;stroke-width:3.33px;stroke-linejoin:round;stroke-miterlimit:1.5;"/><g><path d="M1996.37,708.882c0,0 -3.421,5.053 -1.567,6.304c1.854,1.25 8.134,3.724 12.581,3.739c4.447,0.015 8.522,-0.636 7.365,-2.939c-1.156,-2.303 -11.305,-6.292 -11.305,-6.292" style="fill:none;stroke:#fff;stroke-width:4.17px;stroke-linejoin:round;stroke-miterlimit:1.5;"/><path d="M2008.93,634.256c0,0 9.9,3.826 14.749,2.83c4.849,-0.996 15.089,-5.727 15.089,-5.727c-0,-0 11.191,41.588 12.034,47.573c0.842,5.985 5.353,33.075 5.353,33.075c0,-0 -3.071,2.377 -4.529,2.266c-1.457,-0.112 -23.451,-66.629 -23.451,-66.629c-0,0 -2.882,-4.823 -4.437,-4.608c-1.554,0.214 -21.996,67.152 -21.996,67.152l-5.707,-1.691l12.895,-74.241Z" style="fill:none;stroke:#fff;stroke-width:4.17px;stroke-linejoin:round;stroke-miterlimit:1.5;"/><path d="M2038.77,631.359l-0.113,-4.857l13.326,-20.811l-10.956,-33.431l-13.08,-4.215c-0,-0 -2.435,4.078 -6.518,3.728c-4.083,-0.35 -7.049,-4.045 -7.049,-4.045l-11.516,7.756l-11.699,28.797c0,-0 -0.302,4.927 3.527,6.091c3.829,1.164 17.965,10.219 17.965,10.219l3.737,-8.069l-14.152,-9.815l2.626,-7.954l-2.626,7.954" style="fill:none;stroke:#fff;stroke-width:4.17px;stroke-linejoin:round;stroke-miterlimit:1.5;"/><path d="M2014.38,567.728c0,-0 9.333,21.591 10.078,30.394c0.746,8.803 2.884,29.026 2.884,29.026c0,0 -7.836,1.661 -12.448,1.319c-4.613,-0.341 -7.855,-2.819 -7.855,-2.819l-0.92,-8.667" style="fill:none;stroke:#fff;stroke-width:4.17px;stroke-linejoin:round;stroke-miterlimit:1.5;"/><path d="M2040.71,624.314l-6.352,1.292c-0,0 0.866,-16.059 -1.01,-26.122c-1.875,-10.064 -5.213,-32.233 -5.213,-32.233" style="fill:none;stroke:#fff;stroke-width:4.17px;stroke-linejoin:round;stroke-miterlimit:1.5;"/><path d="M2039.63,595.835l3.105,7.002l-2.54,5.08l-0.565,-12.082Z" style="fill:none;stroke:#fff;stroke-width:4.17px;stroke-linejoin:round;stroke-miterlimit:1.5;"/><path d="M2004.56,597.847l0.512,6.523" style="fill:none;stroke:#fff;stroke-width:4.17px;stroke-linejoin:round;stroke-miterlimit:1.5;"/><path d="M2009.1,626.693l0.736,7.168" style="fill:none;stroke:#fff;stroke-width:4.17px;stroke-linejoin:round;stroke-miterlimit:1.5;"/><path d="M2052.02,714.519l-0.085,5.421c0,0 4.192,1.156 9.602,1.139c5.411,-0.018 8.135,-3.172 8.135,-3.172c-0,-0 -1.597,-3.57 -3.856,-3.813c-2.26,-0.242 -8.791,-2.285 -8.791,-2.285" style="fill:none;stroke:#fff;stroke-width:4.17px;stroke-linejoin:round;stroke-miterlimit:1.5;"/><path d="M2017.24,570.032l-0.346,-10.812c-0,0 -6.255,-12.161 -7.109,-13.196c-0.854,-1.035 -1.407,-6.867 2.375,-8.591c3.782,-1.723 5.385,-1.422 5.385,-1.422c0,-0 0.161,-5.43 4.488,-4.407c4.327,1.022 13.026,5.568 13.026,5.568l-1.12,1.649l0.781,2.42l-1.482,1.449l0.088,14.481l-7.123,7.513l-1.946,-1.178c0,-0 0.283,2.182 1.512,3.107c1.229,0.926 3.394,1.036 3.394,1.036" style="fill:none;stroke:#fff;stroke-width:4.17px;stroke-linejoin:round;stroke-miterlimit:1.5;"/><path d="M2017.27,609.153c-0,-0 -0.716,5.009 -2.176,7.403c-1.461,2.395 -4.733,6.098 -4.733,6.098" style="fill:none;stroke:#fff;stroke-width:4.17px;stroke-linejoin:round;stroke-miterlimit:1.5;"/><path d="M2038.85,606.701c0,-0 0.338,4.768 0.668,7.21c0.33,2.442 1.584,8.846 1.584,8.846" style="fill:none;stroke:#fff;stroke-width:4.17px;stroke-linejoin:round;stroke-miterlimit:1.5;"/></g><circle cx="1838.1" cy="1505.74" r="127.754" style="fill:none;stroke:#fff;stroke-width:3.33px;stroke-linejoin:round;stroke-miterlimit:1.5;"/><g><path d="M1808.39,1585.54c-0,-0 -3.421,5.053 -1.567,6.303c1.854,1.251 8.133,3.725 12.58,3.739c4.448,0.015 8.522,-0.635 7.366,-2.939c-1.156,-2.303 -11.306,-6.291 -11.306,-6.291" style="fill:none;stroke:#fff;stroke-width:4.17px;stroke-linejoin:round;stroke-miterlimit:1.5;"/><path d="M1820.96,1510.91c-0,0 9.9,3.827 14.749,2.83c4.849,-0.996 15.088,-5.727 15.088,-5.727c0,0 11.192,41.589 12.034,47.574c0.842,5.984 5.354,33.074 5.354,33.074c-0,0 -3.072,2.377 -4.529,2.266c-1.457,-0.111 -23.452,-66.629 -23.452,-66.629c0,0 -2.882,-4.823 -4.436,-4.608c-1.555,0.214 -21.996,67.152 -21.996,67.152l-5.708,-1.691l12.896,-74.241Z" style="fill:none;stroke:#fff;stroke-width:4.17px;stroke-linejoin:round;stroke-miterlimit:1.5;"/><path d="M1850.8,1508.02l-0.113,-4.856l13.327,-20.812l-10.956,-33.431l-13.081,-4.215c0,0 -2.434,4.078 -6.517,3.728c-4.083,-0.35 -7.049,-4.045 -7.049,-4.045l-11.516,7.756l-11.699,28.797c-0,0 -0.303,4.927 3.526,6.091c3.829,1.164 17.965,10.219 17.965,10.219l3.737,-8.069l-14.152,-9.814l2.626,-7.954l-2.626,7.954" style="fill:none;stroke:#fff;stroke-width:4.17px;stroke-linejoin:round;stroke-miterlimit:1.5;"/><path d="M1826.41,1444.39c-0,-0 9.332,21.592 10.078,30.395c0.745,8.803 2.884,29.026 2.884,29.026c-0,-0 -7.837,1.66 -12.449,1.319c-4.612,-0.342 -7.855,-2.819 -7.855,-2.819l-0.919,-8.667" style="fill:none;stroke:#fff;stroke-width:4.17px;stroke-linejoin:round;stroke-miterlimit:1.5;"/><path d="M1852.73,1500.97l-6.352,1.292c0,0 0.866,-16.058 -1.009,-26.122c-1.876,-10.063 -5.214,-32.233 -5.214,-32.233" style="fill:none;stroke:#fff;stroke-width:4.17px;stroke-linejoin:round;stroke-miterlimit:1.5;"/><path d="M1851.65,1472.49l3.104,7.002l-2.54,5.081l-0.564,-12.083Z" style="fill:none;stroke:#fff;stroke-width:4.17px;stroke-linejoin:round;stroke-miterlimit:1.5;"/><path d="M1816.59,1474.51l0.513,6.523" style="fill:none;stroke:#fff;stroke-width:4.17px;stroke-linejoin:round;stroke-miterlimit:1.5;"/><path d="M1821.12,1503.35l0.736,7.169" style="fill:none;stroke:#fff;stroke-width:4.17px;stroke-linejoin:round;stroke-miterlimit:1.5;"/><path d="M1864.05,1591.18l-0.085,5.422c-0,-0 4.191,1.156 9.602,1.138c5.41,-0.017 8.134,-3.172 8.134,-3.172c0,0 -1.596,-3.57 -3.856,-3.812c-2.26,-0.242 -8.791,-2.285 -8.791,-2.285" style="fill:none;stroke:#fff;stroke-width:4.17px;stroke-linejoin:round;stroke-miterlimit:1.5;"/><path d="M1829.26,1446.69l-0.346,-10.811c0,-0 -6.254,-12.162 -7.108,-13.196c-0.854,-1.035 -1.408,-6.867 2.374,-8.591c3.782,-1.724 5.386,-1.423 5.386,-1.423c-0,0 0.16,-5.429 4.488,-4.407c4.327,1.023 13.026,5.568 13.026,5.568l-1.12,1.65l0.781,2.419l-1.483,1.449l0.089,14.481l-7.124,7.513l-1.945,-1.178c-0,0 0.282,2.182 1.511,3.107c1.229,0.926 3.395,1.037 3.395,1.037" style="fill:none;stroke:#fff;stroke-width:4.17px;stroke-linejoin:round;stroke-miterlimit:1.5;"/><path d="M1829.29,1485.81c0,0 -0.715,5.009 -2.176,7.404c-1.46,2.394 -4.732,6.097 -4.732,6.097" style="fill:none;stroke:#fff;stroke-width:4.17px;stroke-linejoin:round;stroke-miterlimit:1.5;"/><path d="M1850.87,1483.36c-0,0 0.337,4.769 0.668,7.21c0.33,2.442 1.584,8.847 1.584,8.847" style="fill:none;stroke:#fff;stroke-width:4.17px;stroke-linejoin:round;stroke-miterlimit:1.5;"/></g><circle cx="1556.41" cy="877.109" r="68.558" style="fill:none;stroke:#fff;stroke-width:3.33px;stroke-linejoin:round;stroke-miterlimit:1.5;"/><g><path d="M1540.46,919.934c0,0 -1.836,2.712 -0.841,3.383c0.995,0.671 4.365,1.998 6.752,2.006c2.386,0.008 4.573,-0.341 3.952,-1.577c-0.62,-1.236 -6.067,-3.376 -6.067,-3.376" style="fill:none;stroke:#fff;stroke-width:4.17px;stroke-linejoin:round;stroke-miterlimit:1.5;"/><path d="M1547.21,879.887c0,-0 5.313,2.053 7.915,1.518c2.602,-0.534 8.097,-3.073 8.097,-3.073c0,-0 6.006,22.318 6.458,25.53c0.452,3.211 2.873,17.749 2.873,17.749c0,-0 -1.648,1.275 -2.43,1.216c-0.782,-0.06 -12.585,-35.756 -12.585,-35.756c-0,0 -1.547,-2.588 -2.381,-2.473c-0.834,0.115 -11.804,36.037 -11.804,36.037l-3.063,-0.908l6.92,-39.84Z" style="fill:none;stroke:#fff;stroke-width:4.17px;stroke-linejoin:round;stroke-miterlimit:1.5;"/><path d="M1563.22,878.332l-0.06,-2.606l7.151,-11.169l-5.879,-17.94l-7.02,-2.262c0,0 -1.306,2.189 -3.497,2.001c-2.192,-0.188 -3.783,-2.171 -3.783,-2.171l-6.18,4.162l-6.278,15.454c-0,-0 -0.162,2.644 1.892,3.269c2.055,0.624 9.641,5.484 9.641,5.484l2.006,-4.331l-7.595,-5.267l1.409,-4.268l-1.409,4.268" style="fill:none;stroke:#fff;stroke-width:4.17px;stroke-linejoin:round;stroke-miterlimit:1.5;"/><path d="M1550.13,844.185c-0,0 5.008,11.587 5.408,16.311c0.4,4.724 1.548,15.576 1.548,15.576c-0,0 -4.206,0.892 -6.681,0.708c-2.475,-0.183 -4.215,-1.512 -4.215,-1.512l-0.493,-4.652" style="fill:none;stroke:#fff;stroke-width:4.17px;stroke-linejoin:round;stroke-miterlimit:1.5;"/><path d="M1564.26,874.552l-3.409,0.693c0,-0 0.465,-8.618 -0.541,-14.018c-1.007,-5.401 -2.798,-17.298 -2.798,-17.298" style="fill:none;stroke:#fff;stroke-width:4.17px;stroke-linejoin:round;stroke-miterlimit:1.5;"/><path d="M1563.68,859.268l1.666,3.758l-1.363,2.726l-0.303,-6.484Z" style="fill:none;stroke:#fff;stroke-width:4.17px;stroke-linejoin:round;stroke-miterlimit:1.5;"/><path d="M1544.86,860.348l0.275,3.501" style="fill:none;stroke:#fff;stroke-width:4.17px;stroke-linejoin:round;stroke-miterlimit:1.5;"/><path d="M1547.3,875.828l0.395,3.847" style="fill:none;stroke:#fff;stroke-width:4.17px;stroke-linejoin:round;stroke-miterlimit:1.5;"/><path d="M1570.33,922.959l-0.046,2.909c-0,0 2.249,0.621 5.153,0.611c2.903,-0.009 4.365,-1.702 4.365,-1.702c0,-0 -0.857,-1.916 -2.069,-2.046c-1.213,-0.13 -4.718,-1.226 -4.718,-1.226" style="fill:none;stroke:#fff;stroke-width:4.17px;stroke-linejoin:round;stroke-miterlimit:1.5;"/><path d="M1551.66,845.422l-0.185,-5.802c-0,-0 -3.357,-6.526 -3.815,-7.082c-0.459,-0.555 -0.756,-3.685 1.274,-4.61c2.03,-0.925 2.89,-0.763 2.89,-0.763c0,-0 0.086,-2.914 2.409,-2.365c2.322,0.548 6.99,2.988 6.99,2.988l-0.601,0.885l0.419,1.298l-0.796,0.778l0.048,7.771l-3.823,4.032l-1.044,-0.632c0,-0 0.152,1.17 0.811,1.667c0.66,0.497 1.822,0.556 1.822,0.556" style="fill:none;stroke:#fff;stroke-width:4.17px;stroke-linejoin:round;stroke-miterlimit:1.5;"/><path d="M1551.68,866.415c-0,0 -0.384,2.688 -1.168,3.973c-0.784,1.286 -2.54,3.273 -2.54,3.273" style="fill:none;stroke:#fff;stroke-width:4.17px;stroke-linejoin:round;stroke-miterlimit:1.5;"/><path d="M1563.26,865.099c0,0 0.181,2.56 0.359,3.87c0.177,1.31 0.85,4.747 0.85,4.747" style="fill:none;stroke:#fff;stroke-width:4.17px;stroke-linejoin:round;stroke-miterlimit:1.5;"/></g><circle cx="3973.02" cy="700.698" r="68.558" style="fill:none;stroke:#fff;stroke-width:3.33px;stroke-linejoin:round;stroke-miterlimit:1.5;"/><g><path d="M3957.08,743.523c-0,-0 -1.836,2.712 -0.841,3.383c0.995,0.671 4.365,1.998 6.751,2.006c2.387,0.008 4.573,-0.341 3.953,-1.577c-0.621,-1.236 -6.067,-3.376 -6.067,-3.376" style="fill:none;stroke:#fff;stroke-width:4.17px;stroke-linejoin:round;stroke-miterlimit:1.5;"/><path d="M3963.82,703.476c-0,-0 5.313,2.053 7.915,1.518c2.602,-0.534 8.097,-3.073 8.097,-3.073c-0,-0 6.005,22.318 6.457,25.53c0.453,3.211 2.874,17.749 2.874,17.749c-0,-0 -1.649,1.275 -2.431,1.216c-0.782,-0.06 -12.585,-35.756 -12.585,-35.756c0,0 -1.546,-2.588 -2.381,-2.473c-0.834,0.115 -11.804,36.037 -11.804,36.037l-3.062,-0.908l6.92,-39.84Z" style="fill:none;stroke:#fff;stroke-width:4.17px;stroke-linejoin:round;stroke-miterlimit:1.5;"/><path d="M3979.83,701.921l-0.061,-2.606l7.152,-11.169l-5.88,-17.94l-7.019,-2.262c-0,0 -1.307,2.189 -3.498,2.001c-2.191,-0.188 -3.783,-2.171 -3.783,-2.171l-6.179,4.162l-6.279,15.454c0,-0 -0.162,2.644 1.893,3.269c2.055,0.624 9.641,5.484 9.641,5.484l2.005,-4.331l-7.595,-5.267l1.409,-4.268l-1.409,4.268" style="fill:none;stroke:#fff;stroke-width:4.17px;stroke-linejoin:round;stroke-miterlimit:1.5;"/><path d="M3966.74,667.774c0,-0 5.008,11.587 5.409,16.311c0.4,4.724 1.547,15.576 1.547,15.576c0,0 -4.205,0.891 -6.68,0.708c-2.475,-0.183 -4.215,-1.512 -4.215,-1.512l-0.494,-4.652" style="fill:none;stroke:#fff;stroke-width:4.17px;stroke-linejoin:round;stroke-miterlimit:1.5;"/><path d="M3980.87,698.14l-3.409,0.694c-0,-0 0.465,-8.618 -0.542,-14.018c-1.006,-5.401 -2.798,-17.298 -2.798,-17.298" style="fill:none;stroke:#fff;stroke-width:4.17px;stroke-linejoin:round;stroke-miterlimit:1.5;"/><path d="M3980.29,682.857l1.666,3.758l-1.363,2.726l-0.303,-6.484Z" style="fill:none;stroke:#fff;stroke-width:4.17px;stroke-linejoin:round;stroke-miterlimit:1.5;"/><path d="M3961.47,683.937l0.275,3.501" style="fill:none;stroke:#fff;stroke-width:4.17px;stroke-linejoin:round;stroke-miterlimit:1.5;"/><path d="M3963.91,699.417l0.395,3.847" style="fill:none;stroke:#fff;stroke-width:4.17px;stroke-linejoin:round;stroke-miterlimit:1.5;"/><path d="M3986.94,746.548l-0.046,2.909c0,0 2.25,0.621 5.153,0.611c2.904,-0.009 4.366,-1.702 4.366,-1.702c-0,-0 -0.857,-1.916 -2.07,-2.046c-1.213,-0.13 -4.717,-1.226 -4.717,-1.226" style="fill:none;stroke:#fff;stroke-width:4.17px;stroke-linejoin:round;stroke-miterlimit:1.5;"/><path d="M3968.28,669.011l-0.186,-5.802c0,-0 -3.356,-6.527 -3.815,-7.082c-0.458,-0.555 -0.755,-3.685 1.274,-4.61c2.03,-0.925 2.891,-0.764 2.891,-0.764c-0,0 0.086,-2.913 2.408,-2.364c2.322,0.548 6.99,2.988 6.99,2.988l-0.601,0.885l0.419,1.298l-0.795,0.778l0.047,7.771l-3.823,4.032l-1.044,-0.633c0,0 0.152,1.171 0.812,1.668c0.659,0.497 1.821,0.556 1.821,0.556" style="fill:none;stroke:#fff;stroke-width:4.17px;stroke-linejoin:round;stroke-miterlimit:1.5;"/><path d="M3968.29,690.004c0,0 -0.384,2.688 -1.168,3.973c-0.783,1.285 -2.539,3.272 -2.539,3.272" style="fill:none;stroke:#fff;stroke-width:4.17px;stroke-linejoin:round;stroke-miterlimit:1.5;"/><path d="M3979.87,688.688c-0,0 0.181,2.559 0.358,3.87c0.177,1.31 0.85,4.747 0.85,4.747" style="fill:none;stroke:#fff;stroke-width:4.17px;stroke-linejoin:round;stroke-miterlimit:1.5;"/></g><path d="M2553.76,1315.46l-219.781,1035.36" style="fill:none;stroke:#fff;stroke-width:3.33px;"/><path d="M2718.46,1313.86l368.913,1149.86" style="fill:none;stroke:#fff;stroke-width:3.33px;"/><path d="M3429.49,1340.79l502.412,-585.247" style="fill:none;stroke:#fff;stroke-width:3.33px;"/><circle cx="3322.69" cy="1439.06" r="143.421" style="fill:none;stroke:#fff;stroke-width:3.33px;stroke-linejoin:round;stroke-miterlimit:1.5;"/><g><path d="M3356.05,1528.65c-0,0 3.84,5.673 1.759,7.077c-2.082,1.404 -9.131,4.181 -14.124,4.198c-4.993,0.016 -9.567,-0.714 -8.269,-3.3c1.298,-2.585 12.692,-7.063 12.692,-7.063" style="fill:none;stroke:#fff;stroke-width:4.17px;stroke-linejoin:round;stroke-miterlimit:1.5;"/><path d="M3341.94,1444.87c-0,0 -11.114,4.295 -16.558,3.177c-5.443,-1.118 -16.939,-6.43 -16.939,-6.43c0,0 -12.564,46.689 -13.509,53.408c-0.946,6.719 -6.011,37.131 -6.011,37.131c0,0 3.449,2.669 5.085,2.544c1.636,-0.125 26.328,-74.8 26.328,-74.8c-0,-0 3.235,-5.415 4.98,-5.174c1.745,0.241 24.694,75.388 24.694,75.388l6.407,-1.899l-14.477,-83.345Z" style="fill:none;stroke:#fff;stroke-width:4.17px;stroke-linejoin:round;stroke-miterlimit:1.5;"/><path d="M3308.44,1441.62l0.127,-5.451l-14.961,-23.365l12.3,-37.53l14.685,-4.732c-0,-0 2.733,4.578 7.316,4.185c4.584,-0.393 7.914,-4.541 7.914,-4.541l12.928,8.707l13.134,32.329c-0,-0 0.339,5.531 -3.959,6.838c-4.299,1.307 -20.169,11.472 -20.169,11.472l-4.195,-9.058l15.888,-11.019l-2.948,-8.929l2.948,8.929" style="fill:none;stroke:#fff;stroke-width:4.17px;stroke-linejoin:round;stroke-miterlimit:1.5;"/><path d="M3335.82,1370.18c-0,-0 -10.477,24.239 -11.314,34.122c-0.837,9.883 -3.238,32.586 -3.238,32.586c0,-0 8.798,1.864 13.975,1.481c5.178,-0.384 8.819,-3.165 8.819,-3.165l1.032,-9.73" style="fill:none;stroke:#fff;stroke-width:4.17px;stroke-linejoin:round;stroke-miterlimit:1.5;"/><path d="M3306.27,1433.71l7.131,1.45c0,0 -0.972,-18.028 1.133,-29.326c2.106,-11.297 5.853,-36.185 5.853,-36.185" style="fill:none;stroke:#fff;stroke-width:4.17px;stroke-linejoin:round;stroke-miterlimit:1.5;"/><path d="M3307.48,1401.74l-3.485,7.861l2.852,5.703l0.633,-13.564Z" style="fill:none;stroke:#fff;stroke-width:4.17px;stroke-linejoin:round;stroke-miterlimit:1.5;"/><path d="M3346.84,1404l-0.576,7.323" style="fill:none;stroke:#fff;stroke-width:4.17px;stroke-linejoin:round;stroke-miterlimit:1.5;"/><path d="M3341.75,1436.38l-0.826,8.048" style="fill:none;stroke:#fff;stroke-width:4.17px;stroke-linejoin:round;stroke-miterlimit:1.5;"/><path d="M3293.56,1534.98l0.096,6.087c-0,-0 -4.705,1.297 -10.78,1.278c-6.074,-0.02 -9.132,-3.562 -9.132,-3.562c0,0 1.792,-4.007 4.329,-4.279c2.537,-0.272 9.869,-2.566 9.869,-2.566" style="fill:none;stroke:#fff;stroke-width:4.17px;stroke-linejoin:round;stroke-miterlimit:1.5;"/><path d="M3332.62,1372.77l0.388,-12.138c-0,0 7.021,-13.653 7.98,-14.814c0.959,-1.162 1.58,-7.709 -2.666,-9.645c-4.245,-1.935 -6.046,-1.597 -6.046,-1.597c0,0 -0.18,-6.095 -5.038,-4.947c-4.858,1.148 -14.623,6.251 -14.623,6.251l1.257,1.852l-0.877,2.716l1.664,1.627l-0.099,16.256l7.997,8.435l2.184,-1.323c0,0 -0.317,2.45 -1.697,3.489c-1.38,1.039 -3.811,1.163 -3.811,1.163" style="fill:none;stroke:#fff;stroke-width:4.17px;stroke-linejoin:round;stroke-miterlimit:1.5;"/><path d="M3332.58,1416.69c-0,0 0.803,5.624 2.443,8.312c1.639,2.688 5.313,6.845 5.313,6.845" style="fill:none;stroke:#fff;stroke-width:4.17px;stroke-linejoin:round;stroke-miterlimit:1.5;"/><path d="M3308.36,1413.93c0,0 -0.379,5.354 -0.75,8.095c-0.371,2.741 -1.778,9.931 -1.778,9.931" style="fill:none;stroke:#fff;stroke-width:4.17px;stroke-linejoin:round;stroke-miterlimit:1.5;"/></g><path d="M3184.66,1446.05l-1218.57,62.535" style="fill:none;stroke:#fff;stroke-width:3.33px;stroke-dasharray:3.33,33.33,0,0;"/><path d="M3300.92,1297.25l-74.264,-483.902" style="fill:none;stroke:#fff;stroke-width:3.33px;"/><path d="M2899.74,1179.76l299.18,186.347" style="fill:none;stroke:#fff;stroke-width:3.33px;"/><defs><linearGradient id="_Linear1" x1="0" y1="0" x2="1" y2="0" gradientUnits="userSpaceOnUse" gradientTransform="matrix(5066.38,0,0,2517.38,-43.7247,1079.85)"><stop offset="0" style="stop-color:#383838;stop-opacity:1"/><stop offset="1" style="stop-color:#000;stop-opacity:1"/></linearGradient></defs></svg>